# xmcd CD database file
#
# Track frame offsets:
#	150
#	8536
#	16453
#	24747
#	40181
#	54176
#	70755
#	87624
#	101051
#	118976
#	136005
#	147697
#	160304
#	173249
#	185623
#	199886
#	212364
#	231125
#	244937
#	261350
#	278668
#	296166
#	321953
#
# Disc length: 4729 seconds
#
# Revision: 2
# Processed by: cddbd v1.4b41PL1 Copyright (c) Steve Scherf et al.
# Submitted via: Feurio! 1.51.9ß - http://www.feurio.com
#
DISCID=58127717
DTITLE=ROLLING STONES - Collection Vol. 1
DYEAR=1900
DGENRE=
TTITLE0=Come On
TTITLE1=I Wanna Be Your Man
TTITLE2=Not Fade Away
TTITLE3=It's All Over Now
TTITLE4=Little Red Rooster
TTITLE5=The Last Time
TTITLE6=Satisfaction
TTITLE7=Get Off My Cloud
TTITLE8=19th Nervous Breakdown
TTITLE9=Paint It Black
TTITLE10=Have You Seen My Mother Baby
TTITLE11=Tell Me
TTITLE12=Time Is On My Side
TTITLE13=As Fears Go By
TTITLE14=Lady Jane
TTITLE15=Heart Of Stone
TTITLE16=She's A Rainbow
TTITLE17=Honky Tonk Women
TTITLE18=Jumpin' Jack Flash
TTITLE19=Brown Sugar
TTITLE20=Sway
TTITLE21=Wild Horses
TTITLE22=Can't You Hear Me Knocking
EXTD=
EXTT0=
EXTT1=
EXTT2=
EXTT3=
EXTT4=
EXTT5=
EXTT6=
EXTT7=
EXTT8=
EXTT9=
EXTT10=
EXTT11=
EXTT12=
EXTT13=
EXTT14=
EXTT15=
EXTT16=
EXTT17=
EXTT18=
EXTT19=
EXTT20=
EXTT21=
EXTT22=
PLAYORDER=
